ffmpeg version 3.4.8-0ubuntu0.2 Copyright (c) 2000-2020 the FFmpeg developers
  built with gcc 7 (Ubuntu 7.5.0-3ubuntu1~18.04)
  configuration: --prefix=/usr --extra-version=0ubuntu0.2 --toolchain=hardened --libdir=/usr/lib/x86_64-linux-gnu --incdir=/usr/include/x86_64-linux-gnu --enable-gpl --disable-stripping --enable-avresample --enable-avisynth --enable-gnutls --enable-ladspa --enable-libass --enable-libbluray --enable-libbs2b --enable-libcaca --enable-libcdio --enable-libflite --enable-libfontconfig --enable-libfreetype --enable-libfribidi --enable-libgme --enable-libgsm --enable-libmp3lame --enable-libmysofa --enable-libopenjpeg --enable-libopenmpt --enable-libopus --enable-libpulse --enable-librubberband --enable-librsvg --enable-libshine --enable-libsnappy --enable-libsoxr --enable-libspeex --enable-libssh --enable-libtheora --enable-libtwolame --enable-libvorbis --enable-libvpx --enable-libwavpack --enable-libwebp --enable-libx265 --enable-libxml2 --enable-libxvid --enable-libzmq --enable-libzvbi --enable-omx --enable-openal --enable-opengl --enable-sdl2 --enable-libdc1394 --enable-libdrm --enable-libiec61883 --enable-chromaprint --enable-frei0r --enable-libopencv --enable-libx264 --enable-shared
  libavutil      55. 78.100 / 55. 78.100
  libavcodec     57.107.100 / 57.107.100
  libavformat    57. 83.100 / 57. 83.100
  libavdevice    57. 10.100 / 57. 10.100
  libavfilter     6.107.100 /  6.107.100
  libavresample   3.  7.  0 /  3.  7.  0
  libswscale      4.  8.100 /  4.  8.100
  libswresample   2.  9.100 /  2.  9.100
  libpostproc    54.  7.100 / 54.  7.100
[rawvideo @ 0x55ed90d19a20] Estimating duration from bitrate, this may be inaccurate
Input #0, rawvideo, from '../../SVC-Encoder-20220109T061506Z-001/SVC-Encoder/Dataset/RollerCoaster/6f_2x2/tile_yuv/f1_t3_480x480.yuv':
  Duration: 00:00:10.00, start: 0.000000, bitrate: 82944 kb/s
    Stream #0:0: Video: rawvideo (I420 / 0x30323449), yuv420p, 480x480, 82944 kb/s, 30 tbr, 30 tbn, 30 tbc
Stream mapping:
  Stream #0:0 -> #0:0 (rawvideo (native) -> h264 (libx264))
Press [q] to stop, [?] for help
[libx264 @ 0x55ed90d26c60] using cpu capabilities: MMX2 SSE2Fast LZCNT SSSE3 SSE4.2 AVX
[libx264 @ 0x55ed90d26c60] profile High, level 3.0
Output #0, rawvideo, to 'RollerCoaster_f1_t3_480x480_x264_QP_20.h264':
  Metadata:
    encoder         : Lavf57.83.100
    Stream #0:0: Video: h264 (libx264), yuv420p, 480x480, q=-1--1, 30 fps, 30 tbn, 30 tbc
    Metadata:
      encoder         : Lavc57.107.100 libx264
    Side data:
      cpb: bitrate max/min/avg: 0/0/0 buffer size: 0 vbv_delay: -1
frame=   84 fps=0.0 q=26.0 PSNR=Y:nan U:nan V:nan *:nan size=     256kB time=00:00:01.36 bitrate=1534.5kbits/s speed=2.68x    frame=  129 fps=127 q=26.0 PSNR=Y:nan U:nan V:nan *:nan size=     512kB time=00:00:02.86 bitrate=1463.1kbits/s speed=2.82x    frame=  175 fps=115 q=26.0 PSNR=Y:nan U:nan V:nan *:nan size=     768kB time=00:00:04.40 bitrate=1429.9kbits/s speed=2.89x    frame=  218 fps=108 q=26.0 PSNR=Y:nan U:nan V:nan *:nan size=    1024kB time=00:00:05.83 bitrate=1438.0kbits/s speed=2.89x    frame=  262 fps=104 q=26.0 PSNR=Y:nan U:nan V:nan *:nan size=    1280kB time=00:00:07.30 bitrate=1436.4kbits/s speed=2.89x    frame=  300 fps= 89 q=26.0 LPSNR=Y:inf U:inf V:inf *:inf size=    1792kB time=00:00:09.93 bitrate=1477.7kbits/s speed=2.96x    
video:1792kB audio:0kB subtitle:0kB other streams:0kB global headers:0kB muxing overhead: 0.000000%
[libx264 @ 0x55ed90d26c60] frame I:2     Avg QP:18.12  size: 49428  PSNR Mean Y:45.72 U:49.59 V:50.22 Avg:46.71 Global:46.63
[libx264 @ 0x55ed90d26c60] frame P:76    Avg QP:19.79  size: 15626  PSNR Mean Y:43.75 U:48.94 V:49.36 Avg:44.92 Global:44.84
[libx264 @ 0x55ed90d26c60] frame B:222   Avg QP:25.44  size:  2470  PSNR Mean Y:41.73 U:48.56 V:48.98 Avg:43.08 Global:43.06
[libx264 @ 0x55ed90d26c60] consecutive B-frames:  1.3%  0.0%  0.0% 98.7%
[libx264 @ 0x55ed90d26c60] mb I  I16..4:  2.9% 55.8% 41.3%
[libx264 @ 0x55ed90d26c60] mb P  I16..4:  0.2%  1.4%  0.7%  P16..4: 29.4% 35.9% 26.5%  0.0%  0.0%    skip: 6.0%
[libx264 @ 0x55ed90d26c60] mb B  I16..4:  0.0%  0.0%  0.0%  B16..8: 37.1% 17.8%  4.2%  direct: 3.0%  skip:37.8%  L0:36.5% L1:40.1% BI:23.4%
[libx264 @ 0x55ed90d26c60] 8x8 transform intra:57.7% inter:58.6%
[libx264 @ 0x55ed90d26c60] coded y,uvDC,uvAC intra: 91.4% 91.6% 57.4% inter: 27.0% 14.9% 0.4%
[libx264 @ 0x55ed90d26c60] i16 v,h,dc,p: 19% 33% 15% 33%
[libx264 @ 0x55ed90d26c60] i8 v,h,dc,ddl,ddr,vr,hd,vl,hu: 10% 17%  9%  6% 17% 10% 11%  9% 10%
[libx264 @ 0x55ed90d26c60] i4 v,h,dc,ddl,ddr,vr,hd,vl,hu: 14% 21%  9%  5% 15% 11% 12%  7%  8%
[libx264 @ 0x55ed90d26c60] i8c dc,h,v,p: 40% 21% 19% 20%
[libx264 @ 0x55ed90d26c60] Weighted P-Frames: Y:0.0% UV:0.0%
[libx264 @ 0x55ed90d26c60] ref P L0: 56.1% 17.7% 21.2%  4.9%
[libx264 @ 0x55ed90d26c60] ref B L0: 87.2% 11.0%  1.8%
[libx264 @ 0x55ed90d26c60] ref B L1: 91.1%  8.9%
[libx264 @ 0x55ed90d26c60] PSNR Mean Y:42.268 U:48.666 V:49.086 Avg:43.571 Global:43.463 kb/s:1467.82
